<?xml version="1.0" encoding="UTF-8"?>
<svg xmlns="http://www.w3.org/2000/svg" width="1800" height="520" viewBox="0 0 1800 520" role="img" aria-label="Sendaoroi logo">
  <title>Sendaoroi.org</title>
  <desc>Logo blanco con personas caminando por una senda, texto Sendaoroi.org y eslogan Acompañamiento, memoria y no repetición.</desc>
  <g transform="translate(70.000 68.879) scale(0.686016)">
      <path d="M 275 6 L 270 13 L 271 33 L 250 54 L 238 97 L 240 114 L 248 130 L 254 155 L 258 163 L 261 194 L 267 207 L 263 226 L 262 256 L 259 262 L 259 268 L 266 271 L 278 272 L 275 282 L 276 298 L 267 313 L 263 331 L 281 341 L 297 344 L 300 339 L 300 334 L 296 324 L 288 318 L 288 309 L 301 276 L 304 277 L 309 288 L 311 300 L 316 304 L 324 303 L 335 287 L 336 276 L 322 269 L 318 248 L 318 232 L 328 194 L 326 172 L 335 157 L 340 135 L 340 118 L 342 116 L 345 120 L 347 130 L 349 164 L 361 203 L 370 220 L 373 256 L 372 271 L 367 292 L 367 316 L 371 344 L 369 376 L 371 380 L 377 383 L 387 384 L 393 381 L 404 370 L 404 364 L 393 353 L 392 322 L 394 292 L 404 254 L 407 227 L 409 227 L 417 237 L 419 258 L 427 283 L 427 312 L 432 335 L 439 339 L 447 338 L 461 325 L 464 318 L 462 307 L 455 305 L 453 302 L 453 277 L 447 256 L 450 208 L 438 162 L 439 158 L 446 173 L 456 218 L 461 219 L 468 207 L 469 172 L 472 171 L 486 183 L 487 207 L 493 246 L 491 316 L 494 338 L 492 341 L 492 349 L 499 357 L 506 359 L 514 358 L 517 348 L 521 216 L 523 214 L 526 219 L 530 236 L 535 307 L 534 317 L 538 322 L 547 322 L 559 314 L 561 305 L 554 249 L 562 203 L 563 182 L 578 170 L 588 147 L 588 138 L 582 126 L 580 116 L 574 110 L 570 100 L 549 72 L 541 42 L 534 36 L 517 37 L 511 47 L 512 60 L 503 68 L 492 49 L 491 30 L 489 26 L 478 27 L 472 33 L 473 47 L 469 48 L 465 42 L 462 24 L 456 22 L 451 27 L 450 39 L 440 55 L 442 74 L 450 90 L 450 97 L 441 79 L 430 73 L 425 67 L 428 52 L 425 28 L 419 23 L 406 22 L 400 25 L 395 33 L 394 56 L 381 63 L 375 60 L 371 55 L 368 36 L 365 33 L 358 34 L 353 39 L 352 49 L 342 64 L 337 83 L 333 88 L 326 73 L 324 47 L 320 36 L 313 32 L 301 32 L 297 34 L 295 31 L 296 9 L 287 5 Z" fill="#FFFFFF"/>
      <path d="M 219 207 L 178 211 L 132 219 L 89 230 L 57 241 L 32 254 L 10 274 L 5 285 L 7 305 L 18 319 L 34 330 L 50 338 L 79 348 L 128 359 L 210 370 L 218 355 L 217 352 L 134 341 L 75 328 L 39 312 L 27 302 L 23 291 L 28 282 L 39 272 L 51 264 L 71 255 L 134 237 L 217 224 Z" fill="#FFFFFF"/>
      <path d="M 743 150 L 717 137 L 686 131 L 685 133 L 715 143 L 735 153 L 744 163 L 741 174 L 728 184 L 708 193 L 644 211 L 615 222 L 593 236 L 585 245 L 581 254 L 582 271 L 588 281 L 598 291 L 624 305 L 671 321 L 684 329 L 694 341 L 694 351 L 690 359 L 672 376 L 636 396 L 581 416 L 543 425 L 613 424 L 664 402 L 691 384 L 704 370 L 711 357 L 712 351 L 711 337 L 704 325 L 696 317 L 677 306 L 638 293 L 612 280 L 597 267 L 595 257 L 597 252 L 606 243 L 631 229 L 700 207 L 736 190 L 747 180 L 752 170 L 751 159 Z" fill="#FFFFFF"/>
      <path d="M 728 82 L 683 82 L 646 86 L 622 92 L 610 99 L 605 107 L 606 118 L 618 127 L 635 133 L 655 144 L 658 149 L 658 154 L 647 164 L 633 170 L 611 176 L 585 179 L 583 181 L 583 194 L 613 190 L 640 182 L 660 172 L 671 160 L 672 147 L 669 140 L 659 131 L 619 114 L 616 111 L 618 104 L 625 100 L 652 92 L 686 86 L 724 84 Z" fill="#FFFFFF"/>
  </g>
  <text x="688" y="235" fill="#FFFFFF" font-family="Georgia, 'Times New Roman', DejaVu Serif, serif" font-size="140" font-weight="400" letter-spacing="0" textLength="1012" lengthAdjust="spacingAndGlyphs">Sendaoroi.org</text>
  <text x="688" y="330" fill="#FFFFFF" font-family="Arial, Helvetica, DejaVu Sans, sans-serif" font-size="44" font-weight="400" letter-spacing="1.5" textLength="1012" lengthAdjust="spacingAndGlyphs">Acompañamiento, memoria y no repetición</text>
</svg>
